<svg width="28" height="28" viewBox="0 0 28 28" fill="none" xmlns="http://www.w3.org/2000/svg">
<path d="M13.9999 15.6334L8.28327 21.3501C8.06938 21.5639 7.79716 21.6709 7.4666 21.6709C7.13605 21.6709 6.86382 21.5639 6.64993 21.3501C6.43605 21.1362 6.3291 20.8639 6.3291 20.5334C6.3291 20.2028 6.43605 19.9306 6.64993 19.7167L12.3666 14.0001L6.64993 8.28339C6.43605 8.0695 6.3291 7.79728 6.3291 7.46672C6.3291 7.13617 6.43605 6.86395 6.64993 6.65006C6.86382 6.43617 7.13605 6.32922 7.4666 6.32922C7.79716 6.32922 8.06938 6.43617 8.28327 6.65006L13.9999 12.3667L19.7166 6.65006C19.9305 6.43617 20.2027 6.32922 20.5333 6.32922C20.8638 6.32922 21.136 6.43617 21.3499 6.65006C21.5638 6.86395 21.6708 7.13617 21.6708 7.46672C21.6708 7.79728 21.5638 8.0695 21.3499 8.28339L15.6333 14.0001L21.3499 19.7167C21.5638 19.9306 21.6708 20.2028 21.6708 20.5334C21.6708 20.8639 21.5638 21.1362 21.3499 21.3501C21.136 21.5639 20.8638 21.6709 20.5333 21.6709C20.2027 21.6709 19.9305 21.5639 19.7166 21.3501L13.9999 15.6334Z" fill="white"/>
</svg>
