<svg width="264" height="341" viewBox="0 0 264 341" fill="none" xmlns="http://www.w3.org/2000/svg">
<path d="M213.109 127.528C213.109 157.529 177.891 181.849 134.447 181.849C91.0023 181.849 55.7837 157.529 55.7837 127.528" stroke="white" stroke-width="5"/>
<path d="M68.2467 158.711C54.7786 166.143 38.4865 162.43 31.8573 150.417C25.2281 138.404 30.7722 122.641 44.2404 115.208" stroke="white" stroke-width="5"/>
<path d="M215.031 108.055C230.007 111.004 240.225 123.152 237.855 135.188C235.484 147.223 221.423 154.589 206.447 151.639" stroke="white" stroke-width="5"/>
<path d="M150.772 179.006C151.489 186.833 145.109 193.816 136.522 194.603C127.935 195.39 120.392 189.684 119.675 181.857" stroke="white" stroke-width="5"/>
<path d="M103.955 179.8L41.6907 224.162L70.6448 272.555L99.5989 250.766" stroke="white" stroke-width="5"/>
<path d="M101.137 232.071C100.15 258.468 98.4222 273.068 91.3998 298.434C90.2399 320.811 90.5402 324.445 91.3998 327.901C116.921 338.93 132.261 339.703 160.582 336.1C182.141 328.121 197.785 320.764 206.704 323.033C206.822 313.445 208.331 310.794 202.092 289.21C194.611 267.054 190.622 252.796 183.643 226.177" stroke="white" stroke-width="5"/>
<path d="M188.511 239.758L260 179.543L229.508 148.539" stroke="white" stroke-width="5"/>
<path d="M121.008 150.791C136.163 151.598 139.323 151.877 154.046 141.365" stroke="white" stroke-width="5"/>
<ellipse cx="100.88" cy="122.66" rx="5.63708" ry="5.38085" fill="white"/>
<ellipse cx="164.426" cy="122.66" rx="5.63708" ry="5.38085" fill="white"/>
<path d="M69.8475 84.1392C75.5757 97.5892 82.3339 97.8396 98.0329 90.8012C108.344 83.3062 111.285 79.1856 107.513 72.0963M114.432 58.0036C106.935 71.1564 115.475 80.7319 133.393 87.9827C151.593 94.1363 159.963 86.5173 161.578 84.1392C163.193 81.7611 170.404 75.117 161.578 69.0215" stroke="white" stroke-width="5"/>
<path d="M162.86 83.1143C167.151 91.7022 171.686 94.4142 183.871 95.1572C195.807 94.1061 200.262 91.3645 203.344 81.8331" stroke="white" stroke-width="5"/>
<path d="M60.3958 132.653L68.0827 95.2433" stroke="white" stroke-width="5"/>
<path d="M195.686 96.2681L208.241 129.834L210.035 124.454" stroke="white" stroke-width="5"/>
<path d="M224.256 104.211C224.392 98.4386 221.696 86.3082 217.722 80.8943M203.246 51.9402C210.385 58.1052 211.867 62.7241 212.982 71.67M205.295 43.9971C197.284 44.5056 193.695 43.4373 189.409 38.36M161.48 33.7478C159.828 36.1843 158.606 35.9348 156.099 33.7478C154.816 27.3306 156.476 24.7319 165.067 22.4736C176.991 25.344 181.017 26.8495 184.284 29.3919C186.39 33.4937 186.26 35.7953 184.284 39.8974" stroke="white" stroke-width="5"/>
<path d="M122.886 25.9746C128.758 16.6934 135.864 18.0458 150.559 23.9247M106.999 27.5121C101.937 23.464 100.766 20.6819 106.999 13.1632C112.909 3.30376 115.953 0.723002 120.58 4.96376C121.767 7.75277 122.238 9.12237 122.886 11.3695C124.641 15.642 124.349 17.6684 120.58 20.3376M77.2779 30.5869C82.3947 22.9075 86.2565 21.5383 95.4703 25.9746M44.9928 70.0465C46.6171 56.226 50.3511 49.9417 65.4913 43.1422M37.8183 113.093C34.1874 112.312 33.3493 109.819 37.8183 95.1572C41.9769 86.8729 45.252 82.8333 53.9609 77.4772" stroke="white" stroke-width="5"/>
<path d="M252.569 170.575L257.95 113.948C256.174 75.0406 250.369 73.1716 232.839 99.5991V117.279" stroke="white" stroke-width="5"/>
<path d="M49.0047 237.195L16.0317 250.333C-5.87543 279.386 -1.61222 286.46 39.9316 280.175L64.4954 256.715" stroke="white" stroke-width="5"/>
</svg>
